. 
 
http://www.torrenting.com          :     Once & For all ;)


               www . Torrenting . Com 

(((((((((((((= Enjoy No RAR releases =))))))))))))))))))))


...................................NFO:....................................

.ooooo oooo   oooo oooooooo8 oooooooooo  o88   oooooooooo       o      ooooo       
 888   8888o  88 888         888    888 oooo   888    888     888      888        
 888   88 888o88  888oooooo  888oooo88   888   888oooo88     8  88     888        
 888   88   8888         888 888         888   888  88o     8oooo88    888      o 
o888o o88o    88 o88oooo888 o888o       o888o o888o  88o8 o88o  o888o o888ooooo88 

 
TITLE: 

Alvin and the Chipmunks Chipwrecked 2011 CAM XViD - INSPiRAL

IMDB: 
 
http://www.imdb.com/title/tt1615918/


SOURCES:

VIDEO - Alvin And The Chipmukns Chipwrecked 2011 CAM XVID READ NFO UnKnOwN
AUDIO - Alvin And The Chipmukns Chipwrecked 2011 CAM XVID READ NFO UnKnOwN
SUBS  - None Add

STATS:

Video
ID                               : 0
Format                           : MPEG-4 Visual
Format profile                   : Advanced Simple@L5
Format settings, BVOP            : 2
Format settings, QPel            : No
Format settings, GMC             : No warppoints
Format settings, Matrix          : Default (MPEG)
Muxing mode                      : Packed bitstream
Codec ID                         : XVID
Codec ID/Hint                    : XviD
Duration                         : 1h 20mn
Bit rate                         : 2 313 Kbps
Width                            : 680 pixels
Height                           : 368 pixels
Display aspect ratio             : 16:9
Frame rate                       : 29.970 fps
Color space                      : YUV
Chroma subsampling               : 4:2:0
Bit depth                        : 8 bits
Scan type                        : Progressive
Compression mode                 : Lossy
Bits/(Pixel*Frame)               : 0.308
Stream size                      : 1.30 GiB (94%)
Writing library                  : XviD 64

Audio
ID                               : 1
Format                           : MPEG Audio
Format version                   : Version 1
Format profile                   : Layer 3
Codec ID                         : 55
Codec ID/Hint                    : MP3
Duration                         : 1h 20mn
Bit rate mode                    : Constant
Bit rate                         : 128 Kbps
Channel(s)                       : 2 channels
Sampling rate                    : 44.1 KHz
Compression mode                 : Lossy
Stream size                      : 73.6 MiB (5%)
Alignment                        : Split accross interleaves
Interleave, duration             : 33 ms (1.00 video frame)
Interleave, preload duration     : 500 ms



NOTES:

Another nice cam but shame about the crop,but still more than watchable ....and also got to say the colours changes throughout.
Well do a little work too it ,used a HQ smoother,tried to find a balance on the rgb colours so when it changes it isn't so bad,also
tweaked brightness,contrast and chroma.
Audio just stripped and remuxed.

Yes another release by us late too the party,but this time of year real work comes first guys and gals ...sorry.But enjoy anyway
for those that still want it :D

Merry xmas all.


SCREENS:

[IMG]http://i.imgur.com/BvHD9.png[/IMG]
[IMG]http://i.imgur.com/gg46L.png[/IMG]
[IMG]http://i.imgur.com/ikXNP.png[/IMG]
[IMG]http://i.imgur.com/746W8.png[/IMG]


GREETZ: 

Past,Present and Future